<?xml version="1.0" encoding="utf-8"?>
<!-- Generator: Adobe Illustrator 16.0.0, SVG Export Plug-In . SVG Version: 6.00 Build 0)  -->
<!DOCTYPE svg PUBLIC "-//W3C//DTD SVG 1.1//EN" "http://www.w3.org/Graphics/SVG/1.1/DTD/svg11.dtd" [
	<!ENTITY ns_flows "http://ns.adobe.com/Flows/1.0/">
	<!ENTITY ns_extend "http://ns.adobe.com/Extensibility/1.0/">
	<!ENTITY ns_ai "http://ns.adobe.com/AdobeIllustrator/10.0/">
	<!ENTITY ns_graphs "http://ns.adobe.com/Graphs/1.0/">
]>
<svg version="1.1" id="Layer_1" xmlns:x="&ns_extend;" xmlns:i="&ns_ai;" xmlns:graph="&ns_graphs;"
	 xmlns="http://www.w3.org/2000/svg" xmlns:xlink="http://www.w3.org/1999/xlink" xmlns:a="http://ns.adobe.com/AdobeSVGViewerExtensions/3.0/"
	 x="0px" y="0px" width="61px" height="202px" viewBox="0 0 61 202" enable-background="new 0 0 61 202" xml:space="preserve">
<linearGradient id="SVGID_1_" gradientUnits="userSpaceOnUse" x1="31.417" y1="175.8311" x2="61" y2="175.8311">
	<stop  offset="0" style="stop-color:#CCCCCC"/>
	<stop  offset="1" style="stop-color:#FFFFFF"/>
	<a:midPointStop  offset="0" style="stop-color:#CCCCCC"/>
	<a:midPointStop  offset="0.5" style="stop-color:#CCCCCC"/>
	<a:midPointStop  offset="1" style="stop-color:#FFFFFF"/>
</linearGradient>
<path fill="none" stroke="url(#SVGID_1_)" stroke-width="2" stroke-miterlimit="10" d="M58.41,148.998
	c1.553,5.781,2.063,11.085,1.107,15.593C55.932,181.539,45.645,196.262,31.8,202"/>
<path fill="none" stroke="#FFFFFF" stroke-width="2" stroke-miterlimit="10" d="M36.676,106
	c9.346,14.348,18.217,29.902,21.734,42.998"/>
<linearGradient id="SVGID_2_" gradientUnits="userSpaceOnUse" x1="379.7461" y1="-92.8721" x2="379.7461" y2="-200.146" gradientTransform="matrix(1 0 0 -1 -360.9902 -93.5996)">
	<stop  offset="0" style="stop-color:#D9D9D9"/>
	<stop  offset="0.3065" style="stop-color:#FFFFFF"/>
	<stop  offset="0.3212" style="stop-color:#FFFFFF"/>
	<stop  offset="1" style="stop-color:#FFFFFF"/>
	<a:midPointStop  offset="0" style="stop-color:#D9D9D9"/>
	<a:midPointStop  offset="0.5" style="stop-color:#D9D9D9"/>
	<a:midPointStop  offset="0.3065" style="stop-color:#FFFFFF"/>
	<a:midPointStop  offset="0.2849" style="stop-color:#FFFFFF"/>
	<a:midPointStop  offset="1" style="stop-color:#FFFFFF"/>
</linearGradient>
<path fill="none" stroke="url(#SVGID_2_)" stroke-width="2" stroke-miterlimit="10" d="M13.802,0
	c-3.16,2.981-5.938,6.935-8.122,12.037c-8.013,18.726-5.008,37.702,3.506,53.432C13.095,72.691,25.24,88.441,36.676,106"/>
<path fill="none" stroke="#D9D9D9" stroke-miterlimit="10" d="M13.802,0c-3.16,2.981-5.938,6.935-8.122,12.037
	c-8.013,18.726-5.008,37.702,3.506,53.432c8.514,15.729,56.091,71.907,50.332,99.122C55.932,181.539,45.645,196.262,31.8,202"/>
</svg>
