<?xml version="1.0" encoding="utf-8"?>
<!-- Generator: Adobe Illustrator 16.0.0, SVG Export Plug-In . SVG Version: 6.00 Build 0)  -->
<!DOCTYPE svg PUBLIC "-//W3C//DTD SVG 1.1//EN" "http://www.w3.org/Graphics/SVG/1.1/DTD/svg11.dtd" [
	<!ENTITY ns_flows "http://ns.adobe.com/Flows/1.0/">
	<!ENTITY ns_extend "http://ns.adobe.com/Extensibility/1.0/">
	<!ENTITY ns_ai "http://ns.adobe.com/AdobeIllustrator/10.0/">
	<!ENTITY ns_graphs "http://ns.adobe.com/Graphs/1.0/">
]>
<svg version="1.1" id="Layer_1" xmlns:x="&ns_extend;" xmlns:i="&ns_ai;" xmlns:graph="&ns_graphs;"
	 xmlns="http://www.w3.org/2000/svg" xmlns:xlink="http://www.w3.org/1999/xlink" xmlns:a="http://ns.adobe.com/AdobeSVGViewerExtensions/3.0/"
	 x="0px" y="0px" width="63px" height="202px" viewBox="0 0 63 202" style="enable-background:new 0 0 63 202;"
	 xml:space="preserve">
<linearGradient id="SVGID_1_" gradientUnits="userSpaceOnUse" x1="47.5176" y1="152.6299" x2="47.5176" y2="203.8477">
	<stop  offset="0" style="stop-color:#FFFFFF"/>
	<stop  offset="1" style="stop-color:#CCCCCC"/>
	<a:midPointStop  offset="0" style="stop-color:#FFFFFF"/>
	<a:midPointStop  offset="0.5" style="stop-color:#FFFFFF"/>
	<a:midPointStop  offset="1" style="stop-color:#CCCCCC"/>
</linearGradient>
<path style="fill:none;stroke:url(#SVGID_1_);stroke-width:4;stroke-miterlimit:10;" d="M60.327,152.998
	c0.794,4.235,0.92,8.146,0.19,11.593C56.931,181.539,46.644,196.261,32.8,202"/>
<path style="fill:none;stroke:#FFFFFF;stroke-width:4;stroke-miterlimit:10;" d="M38.969,107.996
	c9.826,15.285,18.871,31.732,21.358,45.002"/>
<linearGradient id="SVGID_2_" gradientUnits="userSpaceOnUse" x1="20.3257" y1="109.0781" x2="20.3257" y2="-1.4546">
	<stop  offset="0" style="stop-color:#FFFFFF"/>
	<stop  offset="0.2357" style="stop-color:#ECECEC"/>
	<stop  offset="0.3" style="stop-color:#E6E6E6"/>
	<a:midPointStop  offset="0" style="stop-color:#FFFFFF"/>
	<a:midPointStop  offset="0.5476" style="stop-color:#FFFFFF"/>
	<a:midPointStop  offset="0.3" style="stop-color:#E6E6E6"/>
</linearGradient>
<path style="fill:none;stroke:url(#SVGID_2_);stroke-width:4;stroke-miterlimit:10;" d="M14.802,0
	c-3.16,2.981-5.938,6.935-8.122,12.037c-8.013,18.726-5.008,37.702,3.506,53.432c4.057,7.495,16.983,24.174,28.783,42.527"/>
<linearGradient id="SVGID_3_" gradientUnits="userSpaceOnUse" x1="32.6084" y1="197.6035" x2="46.1152" y2="197.6035">
	<stop  offset="0" style="stop-color:#E6E6E6"/>
	<stop  offset="1" style="stop-color:#A6A6A6"/>
	<a:midPointStop  offset="0" style="stop-color:#E6E6E6"/>
	<a:midPointStop  offset="0.5" style="stop-color:#E6E6E6"/>
	<a:midPointStop  offset="1" style="stop-color:#A6A6A6"/>
</linearGradient>
<path style="fill:none;stroke:url(#SVGID_3_);stroke-miterlimit:10;" d="M45.76,193.098c-3.808,3.856-8.171,6.917-12.96,8.902"/>
<path style="fill:none;stroke:#A6A6A6;stroke-miterlimit:10;" d="M14.802,0c-3.16,2.981-5.938,6.935-8.122,12.037
	c-8.013,18.726-5.008,37.702,3.506,53.432c8.514,15.729,56.091,71.907,50.332,99.122c-2.346,11.085-7.559,21.218-14.758,28.507"/>
</svg>
